<svg width="57" height="57" viewBox="0 0 57 57" fill="none" xmlns="http://www.w3.org/2000/svg">
<path d="M9.28621 31.966C9.01011 31.9809 8.77261 31.9942 8.51582 32.0076C8.51582 39.6046 8.51582 47.172 8.51582 54.7601C9.74636 54.7601 10.9428 54.7601 12.1718 54.7601C12.1718 53.8932 12.1718 53.0501 12.1718 52.1402C11.4374 52.1402 10.7098 52.1402 9.96161 52.1402C9.79766 52.1402 9.66472 52.0073 9.66472 51.8433C9.66472 50.4692 9.66472 49.1405 9.66472 47.7642C9.66472 47.6002 9.79765 47.4674 9.9616 47.4674C11.2978 47.4674 12.6334 47.4674 13.9946 47.4674C13.9946 47.071 13.9946 46.7445 13.9946 46.363C13.1851 46.363 12.3803 46.363 11.5484 46.363C11.3845 46.363 11.2515 46.23 11.2515 46.0661C11.2515 45.1195 11.2515 44.2035 11.2515 43.2517C11.2515 43.0878 11.3844 42.9548 11.5484 42.9548C12.3634 42.9548 13.167 42.9548 13.9932 42.9548C13.9932 42.7337 13.9932 42.5734 13.9932 42.3581C13.1836 42.3581 12.3788 42.3581 11.5469 42.3581C11.383 42.3581 11.25 42.2251 11.25 42.0613C11.25 41.1185 11.25 40.2074 11.25 39.281C11.25 39.1171 11.383 38.9841 11.5469 38.9841C17.6233 38.9841 23.6825 38.9841 29.7839 38.9841C29.9479 38.9841 30.0809 39.117 30.0809 39.281C30.0809 40.1837 30.0809 41.0905 30.0809 42.0316C30.0809 42.1954 29.9479 42.3284 29.784 42.3284C28.9795 42.3284 28.1758 42.3284 27.3511 42.3284C27.3511 42.557 27.3511 42.7307 27.3511 42.9459C28.1677 42.9459 28.9606 42.9459 29.7839 42.9459C29.9479 42.9459 30.0809 43.0789 30.0809 43.2428C30.0809 44.1777 30.0809 45.0909 30.0809 46.0379C30.0809 46.2018 29.9479 46.3348 29.7839 46.3348C28.9774 46.3348 28.1747 46.3348 27.3496 46.3348C27.3496 46.7177 27.3496 47.0428 27.3496 47.4332C28.6831 47.4332 30.0205 47.4332 31.3929 47.4332C31.557 47.4332 31.69 47.5661 31.69 47.7301C31.69 49.1113 31.69 50.4509 31.69 51.8195C31.69 51.9836 31.557 52.1164 31.3929 52.1164C30.6645 52.1164 29.946 52.1164 29.1917 52.1164C29.1917 53.0189 29.1917 53.8769 29.1917 54.7853C29.5421 54.7853 29.8716 54.7853 30.2011 54.7853C32.7379 54.7853 35.2762 54.7838 37.813 54.7868C38.0743 54.7868 38.2939 54.8046 38.4171 54.4706C39.6759 51.0684 40.5353 47.5787 40.7877 43.9509C40.7936 43.8603 40.7892 43.7683 40.7892 43.7549C39.8793 43.4224 39.0094 43.1033 38.0653 42.7574C35.5092 44.5773 32.7008 43.1909 31.6929 41.3755C30.7147 39.615 30.9878 36.4444 34.0961 35.196C33.4623 32.5509 34.3811 30.6568 36.9253 29.5376C36.6181 28.6559 36.4785 27.7534 36.7146 26.8256C37.0337 25.5743 37.7432 24.6094 38.8981 24.0291C39.29 23.8331 39.3538 23.6164 39.33 23.2216C39.2306 21.5219 39.9089 20.183 41.3532 19.2894C42.7782 18.4077 44.2834 18.3795 45.7277 19.2167C47.2982 20.1266 47.981 21.5576 47.8696 23.3641C47.8548 23.6105 47.7999 23.8019 48.1175 23.9355C50.0324 24.7386 51.162 27.2635 50.3664 29.4084C50.3485 29.4574 50.353 29.5153 50.3471 29.5673C52.5974 30.4594 53.8116 32.6206 53.0902 35.2005C54.6028 35.812 55.6225 36.8823 55.9372 38.527C56.151 39.6477 55.9372 40.7031 55.3034 41.656C54.058 43.5293 51.2956 44.3798 49.1314 42.7396C48.2333 43.0766 47.3828 43.3957 46.409 43.7609C46.6005 45.1027 46.7014 46.5871 47.0399 48.0151C47.5416 50.1333 48.217 52.2114 48.7989 54.3118C48.9117 54.7185 49.1403 54.7957 49.5217 54.7913C51.0502 54.7732 52.5802 54.7825 54.141 54.7837C54.305 54.7838 54.438 54.9167 54.438 55.0807C54.438 55.2688 54.438 55.4499 54.438 55.6329C54.438 55.7969 54.305 55.9298 54.141 55.9298C36.478 55.9298 18.8477 55.9298 1.19044 55.9298C1.02648 55.9298 0.893555 55.7969 0.893555 55.6329C0.893555 55.4555 0.893555 55.279 0.893555 55.0926C0.893555 54.9286 1.02647 54.7957 1.19043 54.7957C2.32198 54.7957 3.45439 54.7957 4.61191 54.7957C4.61191 47.1631 4.61191 39.5987 4.61191 32.0091C4.33285 31.9912 4.0805 31.9734 3.78957 31.9541C3.34722 30.2323 2.90488 28.5163 2.46847 26.8004C2.07066 25.2418 1.67285 23.6832 1.29434 22.1187C1.24684 21.9242 1.25426 21.6689 1.34184 21.4952C1.90293 20.3908 2.48183 19.2939 3.08746 18.2133C3.178 18.053 3.44519 17.903 3.63222 17.9001C5.57675 17.8778 7.52128 17.8763 9.46582 17.9016C9.66769 17.9045 9.95418 18.0708 10.0536 18.2459C10.6444 19.2924 11.2011 20.3597 11.7473 21.4299C11.8393 21.611 11.8972 21.8663 11.8497 22.0563C11.0333 25.3026 10.1991 28.543 9.36636 31.7849C9.35449 31.8413 9.32183 31.8888 9.28621 31.966ZM40.8753 24.5961C40.6793 24.6495 40.522 24.697 40.3617 24.7356C37.908 25.3249 36.9996 27.7727 38.4765 29.8196C38.6205 30.02 38.763 30.2219 38.9753 30.5217C37.0456 30.4994 35.6132 31.114 35.1485 33.0066C34.8413 34.2579 35.245 35.3816 36.2752 36.1727C37.5903 37.1821 38.9515 37.0485 40.2815 36.1134C40.5279 36.3998 40.7565 36.6641 40.9851 36.9283C39.4889 38.4884 36.6344 38.3444 35.0565 36.6151C34.7908 36.3241 34.583 36.2945 34.2505 36.434C32.7839 37.0515 32.0061 38.714 32.4811 40.2488C32.9487 41.757 34.5682 42.6906 36.1164 42.3715C36.9847 42.1934 37.5963 41.6516 38.1485 41.0192C40.4285 42.943 41.331 42.9415 43.6154 41.037C45.3388 42.6298 47.1527 42.8999 48.1635 41.7154C47.7316 40.9806 47.3991 40.2206 47.4585 39.3493C47.8696 39.3493 48.211 39.3493 48.5435 39.3493C49.0111 41.4452 50.2031 42.5318 51.8864 42.4294C53.4524 42.3329 54.6903 41.1439 54.8462 39.5571C54.9189 38.8134 54.7126 38.1277 54.2896 37.5102C53.5756 36.4666 52.489 36.1742 51.2525 36.0985C51.4707 35.7096 51.6652 35.3979 51.827 35.0684C52.6152 33.4593 51.8582 31.4821 50.209 30.8023C49.8735 30.6642 49.6405 30.6612 49.3377 30.9596C47.6351 32.631 44.9632 32.6043 43.4299 31.013C43.6629 30.7102 43.8945 30.4104 44.1201 30.118C45.3789 31.1229 46.6896 31.3366 47.8296 30.6316C48.9473 29.9413 49.5648 28.8755 49.4193 27.547C49.2249 25.7687 48.07 24.8722 46.314 24.6213C47.0503 22.9321 46.8588 21.4581 45.3507 20.3433C44.3205 19.5819 42.8346 19.5997 41.8104 20.3745C40.3275 21.4937 40.1509 22.9514 40.8753 24.5961ZM44.2908 54.7631C45.4679 54.7631 46.5545 54.7631 47.6366 54.7631C47.6485 54.7052 47.6692 54.6651 47.6618 54.6339C47.6292 54.5092 47.5921 54.3845 47.549 54.2643C46.3363 50.9052 45.5481 47.4555 45.3195 43.8856C45.3002 43.5902 45.171 43.4729 44.9142 43.32C44.0622 42.8109 43.2725 42.6164 42.3893 43.2829C42.1459 43.4655 42.0167 43.5768 41.9692 43.8841C41.6219 46.1106 41.3132 48.3476 40.8575 50.5519C40.5635 51.9724 40.0381 53.3455 39.6135 54.7527C40.7669 54.7527 41.9217 54.7527 43.1434 54.7527C43.1434 53.9648 43.1434 53.2012 43.1434 52.4415C43.1434 52.2775 43.2762 52.1446 43.4403 52.1446C43.6297 52.1446 43.8099 52.1446 43.9948 52.1446C44.159 52.1446 44.292 52.2779 44.2918 52.4421C44.2908 53.2108 44.2908 53.9659 44.2908 54.7631ZM7.09082 30.7399C8.38519 30.9433 8.38371 30.9433 8.6791 29.7929C8.72511 29.6133 8.7741 29.4352 8.82011 29.257C9.39605 27.0023 9.97199 24.7475 10.5539 22.4645C9.37972 22.4645 8.24566 22.4645 7.06855 22.4645C7.06855 23.4724 7.06855 24.446 7.06855 25.4333C7.06855 25.5973 6.93564 25.7301 6.77167 25.7301C6.57535 25.7301 6.38329 25.7301 6.18092 25.7301C6.01696 25.7301 5.88402 25.5971 5.88402 25.4333C5.88402 24.423 5.88402 23.4381 5.88402 22.4497C4.74847 22.4497 3.68269 22.4497 2.58574 22.4497C2.63027 22.6605 2.66293 22.8416 2.70894 23.0182C3.28636 25.2937 3.86675 27.5693 4.44418 29.8448C4.69949 30.8542 4.698 30.8542 5.75488 30.783C5.78605 30.7815 5.81722 30.7503 5.9048 30.7028C5.9048 29.7448 5.9048 28.7608 5.9048 27.7578C5.9048 27.5938 6.03773 27.4609 6.20169 27.4609C6.40198 27.4609 6.59446 27.4609 6.79394 27.4609C6.95789 27.4609 7.09082 27.5939 7.09082 27.7578C7.09082 28.7748 7.09082 29.7617 7.09082 30.7399ZM10.8092 50.3841C10.8092 50.6127 10.8092 50.7716 10.8092 50.9423C17.4014 50.9423 23.9638 50.9423 30.5128 50.9423C30.5128 50.1511 30.5128 49.403 30.5128 48.6682C23.9178 48.6682 17.3702 48.6682 10.8136 48.6682C10.8136 48.8641 10.8136 49.02 10.8136 49.2427C13.0001 49.2427 15.154 49.2427 17.2841 49.2427C17.2841 49.6568 17.2841 50.0012 17.2841 50.3841C15.1169 50.3841 12.9912 50.3841 10.8092 50.3841ZM7.27785 54.7586C7.27785 47.1883 7.27785 39.6105 7.27785 32.0135C6.79246 32.0135 6.32191 32.0135 5.82464 32.0135C5.82464 39.6076 5.82464 47.1705 5.82464 54.7586C6.31597 54.7586 6.77464 54.7586 7.27785 54.7586ZM15.9957 52.1624C15.9957 53.0486 15.9957 53.9006 15.9957 54.7378C19.1603 54.7378 22.2746 54.7378 25.3739 54.7378C25.3739 53.8472 25.3739 53.007 25.3739 52.1624C22.2241 52.1624 19.1203 52.1624 15.9957 52.1624ZM28.9557 44.1483C23.4205 44.1483 17.9209 44.1483 12.4168 44.1483C12.4168 44.509 12.4168 44.8296 12.4168 45.1577C17.9506 45.1577 23.4383 45.1577 28.9557 45.1577C28.9557 44.8177 28.9557 44.509 28.9557 44.1483ZM12.4123 40.1212C12.4123 40.4745 12.4123 40.8114 12.4123 41.1662C17.9417 41.1662 23.4309 41.1662 28.9364 41.1662C28.9364 40.801 28.9364 40.4656 28.9364 40.1212C23.4309 40.1212 17.9714 40.1212 12.4123 40.1212ZM26.1221 46.3778C22.472 46.3778 18.8546 46.3778 15.2312 46.3778C15.2312 46.7445 15.2312 47.071 15.2312 47.4169C18.8768 47.4169 22.4957 47.4169 26.1221 47.4169C26.1221 47.0532 26.1221 46.7266 26.1221 46.3778ZM2.8841 21.2132C5.34668 21.2132 7.79292 21.2132 10.3178 21.2132C9.95566 20.5215 9.63652 19.8802 9.28175 19.2598C9.22089 19.1529 9.00863 19.0801 8.86613 19.0787C7.3298 19.0653 5.79496 19.0608 4.25863 19.0846C4.0805 19.0876 3.90386 19.2731 3.72722 19.3741C3.75543 19.4334 3.78214 19.4943 3.81035 19.5537C4.16992 19.5537 4.53042 19.5537 4.89839 19.5537C5.06236 19.5537 5.19527 19.6867 5.19527 19.8505C5.19527 20.0298 5.19527 20.2046 5.19527 20.3864C5.19527 20.5503 5.06234 20.6833 4.89838 20.6843C4.40711 20.6873 3.93232 20.6947 3.45855 20.6773C3.08597 20.6625 2.91675 20.8243 2.8841 21.2132ZM15.2282 42.9237C18.8828 42.9237 22.4853 42.9237 26.1072 42.9237C26.1072 42.7188 26.1072 42.5481 26.1072 42.3641C22.4601 42.3641 18.856 42.3641 15.2282 42.3641C15.2282 42.5541 15.2282 42.7144 15.2282 42.9237ZM26.603 52.1565C26.603 53.0649 26.603 53.9066 26.603 54.7527C27.078 54.7527 27.5129 54.7527 27.9449 54.7527C27.9449 53.865 27.9449 53.01 27.9449 52.1565C27.4773 52.1565 27.0572 52.1565 26.603 52.1565ZM13.4217 52.1624C13.4217 53.0545 13.4217 53.9125 13.4217 54.7482C13.9086 54.7482 14.3242 54.7482 14.7443 54.7482C14.7443 53.8695 14.7443 53.0308 14.7443 52.1624C14.2826 52.1624 13.8521 52.1624 13.4217 52.1624Z" fill="#0C6A3A"/>
<path d="M48.0727 6.14828C51.2151 5.28289 53.5604 7.77664 53.222 10.3847C53.3706 10.401 53.5186 10.4167 53.6743 10.4333C53.8249 10.4494 53.9389 10.5766 53.9389 10.7281C53.9389 10.899 53.9389 11.069 53.9389 11.2441C53.9389 11.4081 53.8061 11.541 53.6421 11.541C50.7097 11.541 47.8025 11.541 44.8635 11.541C44.6996 11.541 44.5666 11.4081 44.5666 11.2441C44.5666 11.0809 44.5666 10.9163 44.5666 10.7439C44.5666 10.58 44.6996 10.447 44.8635 10.447C47.2156 10.447 49.5709 10.447 51.9083 10.447C52.2631 9.39015 51.8623 8.21601 50.8767 7.62375C50.4343 7.35804 49.8807 7.15914 49.3745 7.1532C48.8891 7.14726 48.3384 7.33578 47.9317 7.61039C47.5027 7.89984 47.2088 8.38968 46.857 8.79343C46.7887 8.75336 46.7204 8.71476 46.6521 8.67468C46.716 8.20117 46.7724 7.72617 46.8451 7.25414C47.2043 4.91625 45.7125 2.82328 43.3568 2.36312C41.1881 1.94007 38.9868 3.43187 38.5044 5.67773C38.4079 6.12453 38.4124 6.59211 38.3678 7.08047C38.1288 7.11757 37.8943 7.1532 37.6583 7.19179C36.3164 7.40851 35.3753 8.59156 35.4332 9.95421C35.4481 10.2986 35.546 10.4455 35.9201 10.4352C36.7108 10.414 37.5014 10.4247 38.3174 10.4272C38.4814 10.4277 38.6142 10.5607 38.6142 10.7246C38.6142 10.8972 38.6142 11.0657 38.6142 11.2397C38.6142 11.4036 38.4814 11.5366 38.3174 11.5366C36.6903 11.5366 35.0664 11.5366 33.4206 11.5366C33.2565 11.5366 33.1235 11.4036 33.1235 11.2397C33.1235 11.0725 33.1235 10.9051 33.1235 10.7291C33.1235 10.5651 33.2565 10.4322 33.4204 10.4322C33.7103 10.4322 33.9842 10.4322 34.2264 10.4322C34.2947 9.83992 34.2932 9.29367 34.4298 8.78601C34.7771 7.50054 35.6099 6.62773 36.8746 6.19578C37.1521 6.10078 37.2828 5.97609 37.3317 5.67031C37.7592 3.04445 40.1001 1.07914 42.7081 1.13406C45.4008 1.19046 47.663 3.19734 48.0103 5.83507C48.0222 5.9375 48.0504 6.0414 48.0727 6.14828Z" fill="#0C6A3A"/>
<path d="M23.8256 23.2364C21.9107 23.2305 20.3759 21.6882 20.3833 19.7763C20.3907 17.8719 21.9493 16.3222 23.8493 16.3281C25.7404 16.334 27.3109 17.9119 27.302 19.8001C27.2931 21.6986 25.7315 23.2423 23.8256 23.2364ZM26.1204 19.7837C26.119 18.5057 25.1066 17.4963 23.83 17.4993C22.555 17.5037 21.5411 18.522 21.5456 19.7941C21.55 21.0573 22.5847 22.0919 23.8419 22.089C25.1036 22.0875 26.1219 21.0573 26.1204 19.7837Z" fill="#0C6A3A"/>
<path d="M6.20863 1.93125C6.26813 1.87199 6.36488 1.87374 6.42204 1.93526C6.7854 2.32627 7.20796 2.78239 7.66068 3.26909C7.71987 3.33272 7.82087 3.33208 7.87928 3.26774C8.33478 2.76593 8.75678 2.30184 9.14711 1.87174C9.20423 1.8088 9.30245 1.80665 9.36238 1.86692C10.0228 2.53106 10.6156 3.1255 11.2033 3.71682C11.2645 3.77839 11.26 3.87903 11.1936 3.93495C11.0479 4.05768 10.8631 4.21343 10.6528 4.3908C10.5912 4.44277 10.4994 4.43621 10.446 4.37588C10.2128 4.11279 9.93058 3.79473 9.63969 3.46654C9.58208 3.40155 9.48122 3.39967 9.42123 3.46249C8.90984 3.99812 8.46141 4.46879 7.98083 4.97248C7.92114 5.03503 7.82083 5.03355 7.76304 4.96923C7.26536 4.41538 6.8215 3.9203 6.33221 3.37488C6.27246 3.30827 6.16772 3.30936 6.10925 3.37709C5.73942 3.80554 5.4355 4.15734 5.12627 4.51592C5.06667 4.58502 4.9594 4.5845 4.90044 4.51483C4.69987 4.27782 4.53651 4.08506 4.40023 3.92373C4.3504 3.86472 4.3542 3.77743 4.40895 3.72295C4.95839 3.17616 5.56008 2.57714 6.20863 1.93125Z" fill="#0C6A3A"/>
<path d="M14.661 8.86916C14.6032 8.93937 14.4964 8.94155 14.4357 8.87377C14.0117 8.39993 13.6573 8.00399 13.2519 7.551C13.1908 7.48266 13.0828 7.48556 13.0254 7.5571C12.8005 7.83735 12.5996 8.0872 12.4057 8.32893C12.3504 8.39781 12.2477 8.40358 12.1851 8.34127C11.9599 8.11691 11.7666 7.92382 11.5804 7.73846C11.5218 7.68019 11.5221 7.58532 11.5809 7.52737C12.0793 7.03682 12.5853 6.53875 13.1249 6.00811C13.1853 5.94867 13.2832 5.95183 13.3397 6.01509C13.6632 6.37752 14.008 6.76382 14.4275 7.23266C14.4884 7.30074 14.5959 7.29817 14.6534 7.22725C15.0202 6.77521 15.3466 6.3722 15.6545 5.99235C15.7098 5.92405 15.8121 5.91858 15.8745 5.98051C16.4448 6.54673 16.9444 7.04131 17.4754 7.56816C17.538 7.63034 17.5328 7.73311 17.4644 7.78884C17.2732 7.94451 17.0612 8.11812 16.8016 8.33002C16.736 8.38353 16.6391 8.37157 16.5886 8.3036C16.4314 8.09139 16.2426 7.83577 16.0092 7.52028C15.9518 7.44249 15.8363 7.43962 15.775 7.51438C15.3757 8.00121 15.0347 8.41526 14.661 8.86916Z" fill="#0C6A3A"/>
<path d="M5.03406 12.4439C4.9755 12.4969 4.88568 12.4948 4.82963 12.4392C4.64211 12.253 4.45907 12.072 4.27014 11.8852C4.2098 11.8256 4.21167 11.7275 4.27425 11.6702C4.7272 11.2553 5.16995 10.85 5.65048 10.4108C5.71355 10.3532 5.81213 10.3605 5.86595 10.4269C6.06681 10.6746 6.31386 10.9785 6.59568 11.3246C6.65412 11.3963 6.76333 11.3977 6.82355 11.3274C7.17481 10.9177 7.45389 10.5924 7.73077 10.269C7.7879 10.2022 7.89024 10.1994 7.95093 10.263C8.43605 10.7707 8.85824 11.2125 9.29327 11.669C9.35056 11.7292 9.34737 11.8246 9.28611 11.8807C9.10787 12.044 8.91238 12.2223 8.70367 12.413C8.6463 12.4654 8.55825 12.4647 8.50165 12.4115C8.34816 12.2672 8.17862 12.1085 7.96524 11.9081C7.90256 11.8493 7.80315 11.8558 7.74868 11.9223C7.48772 12.2411 7.22601 12.5605 6.93583 12.9151C6.87734 12.9865 6.76846 12.9878 6.70827 12.9178C6.39194 12.5497 6.12309 12.2375 5.84545 11.9149C5.79097 11.8516 5.69496 11.8457 5.63308 11.9018C5.40771 12.1061 5.22096 12.2747 5.03406 12.4439Z" fill="#0C6A3A"/>
<path d="M42.9252 10.4633C43.0891 10.4633 43.2221 10.5963 43.2221 10.7602C43.2221 10.9289 43.2221 11.0957 43.2221 11.267C43.2221 11.423 43.1016 11.5546 42.946 11.5664C42.8841 11.5711 42.8244 11.5745 42.7649 11.5751C41.9386 11.5778 41.1123 11.5769 40.2593 11.5767C40.0953 11.5766 39.9624 11.4437 39.9624 11.2797C39.9624 11.1037 39.9624 10.9338 39.9624 10.7602C39.9624 10.5963 40.0953 10.4633 40.2593 10.4633C41.1462 10.4633 42.0292 10.4633 42.9252 10.4633Z" fill="#0C6A3A"/>
<path d="M23.2944 25.1186C23.2944 24.9547 23.4273 24.8217 23.5913 24.8217C23.7596 24.8217 23.9246 24.8217 24.093 24.8217C24.2569 24.8217 24.3899 24.9547 24.3899 25.1186C24.3899 25.7827 24.3899 26.4335 24.3899 27.1002C24.3899 27.2641 24.2569 27.3971 24.093 27.3971C23.9281 27.3971 23.7631 27.3971 23.5913 27.3971C23.4273 27.3971 23.2944 27.2643 23.2944 27.1002C23.2944 26.4566 23.2944 25.8059 23.2944 25.1186Z" fill="#0C6A3A"/>
<path d="M29.0273 25.2875C28.9099 25.4011 28.7229 25.3981 28.6089 25.2811C28.1855 24.8465 27.7451 24.3947 27.3083 23.9458C27.1947 23.8291 27.1963 23.6428 27.3117 23.5279C27.3944 23.4456 27.48 23.3599 27.5646 23.2753C27.6805 23.1595 27.8683 23.1594 27.9842 23.2751C28.4138 23.7038 28.8591 24.1488 29.3074 24.5952C29.425 24.7123 29.4238 24.9032 29.3047 25.0187C29.2157 25.1052 29.122 25.1959 29.0273 25.2875Z" fill="#0C6A3A"/>
<path d="M20.4243 15.6714C20.541 15.7906 20.5367 15.9824 20.4144 16.0958C20.3198 16.1834 20.2225 16.2736 20.1263 16.3627C20.0087 16.4715 19.826 16.4679 19.7132 16.3542C19.2581 15.896 18.8006 15.436 18.3245 14.9569C18.2045 14.8358 18.2105 14.6386 18.3379 14.5252C18.4363 14.4376 18.539 14.3461 18.6426 14.2539C18.7611 14.1485 18.9413 14.1551 19.0519 14.2685C19.4957 14.7232 19.9516 15.1886 20.4243 15.6714Z" fill="#0C6A3A"/>
<path d="M24.0975 12.1498C24.2614 12.1542 24.3943 12.2885 24.3943 12.4525C24.3943 13.1299 24.3943 13.7745 24.3943 14.4341C24.3943 14.598 24.2614 14.7309 24.0974 14.7309C23.9184 14.7309 23.7377 14.7309 23.5467 14.7309C23.3828 14.7309 23.2498 14.598 23.2494 14.4341C23.2474 13.7675 23.2412 13.1111 23.2632 12.4569C23.2661 12.353 23.4383 12.1882 23.5526 12.1704C23.7278 12.1419 23.908 12.1446 24.0975 12.1498Z" fill="#0C6A3A"/>
<path d="M28.6581 14.2313C28.7742 14.1161 28.9617 14.1164 29.0772 14.2322C29.1815 14.3369 29.2877 14.4434 29.3929 14.5488C29.5093 14.6656 29.5085 14.8549 29.391 14.9705C28.9075 15.446 28.4374 15.9079 27.9505 16.3869C27.8324 16.5031 27.6418 16.5 27.5275 16.3802C27.4295 16.2777 27.3277 16.1709 27.2251 16.0635C27.1136 15.9466 27.116 15.762 27.2306 15.6481C27.7037 15.1779 28.1733 14.7125 28.6581 14.2313Z" fill="#0C6A3A"/>
<path d="M19.761 23.2597C19.8814 23.139 20.0785 23.1442 20.1922 23.2712C20.2527 23.3387 20.3151 23.4083 20.3766 23.4767C20.482 23.5943 20.4772 23.7736 20.3656 23.8852C19.9164 24.335 19.4535 24.7998 18.9734 25.2803C18.8538 25.4 18.6583 25.3954 18.5441 25.2705C18.4836 25.2041 18.4209 25.1355 18.3593 25.0683C18.252 24.951 18.2557 24.7702 18.3679 24.6576C18.8141 24.2102 19.2719 23.7503 19.761 23.2597Z" fill="#0C6A3A"/>
<path d="M31.4229 20.0346C31.4229 20.1985 31.2899 20.3315 31.1261 20.3315C30.4759 20.3315 29.8399 20.3315 29.189 20.3315C29.0249 20.3315 28.8921 20.1986 28.8921 20.0346C28.8921 19.8679 28.8921 19.7043 28.8921 19.5374C28.8921 19.3735 29.0249 19.2405 29.189 19.2405C29.8311 19.2405 30.4679 19.2405 31.1259 19.2405C31.2899 19.2405 31.4229 19.3733 31.4229 19.5374C31.4229 19.6974 31.4229 19.8608 31.4229 20.0346Z" fill="#0C6A3A"/>
<path d="M16.5241 20.3137C16.3601 20.3137 16.2271 20.1808 16.2271 20.0168C16.2271 19.8617 16.2271 19.7086 16.2271 19.5507C16.2271 19.3868 16.3601 19.2538 16.5239 19.2538C17.1649 19.2538 17.8104 19.2538 18.4803 19.2538C18.6444 19.2538 18.7772 19.3867 18.7772 19.5507C18.7772 19.7008 18.7772 19.8548 18.7772 20.0168C18.7772 20.1807 18.6444 20.3137 18.4803 20.3137C17.8467 20.3137 17.201 20.3137 16.5241 20.3137Z" fill="#0C6A3A"/>
<path d="M26.1218 46.3778C26.1218 46.7266 26.1218 47.0532 26.1218 47.4169C22.4955 47.4169 18.8766 47.4169 15.231 47.4169C15.231 47.0695 15.231 46.7444 15.231 46.3778C18.8543 46.3778 22.4717 46.3778 26.1218 46.3778Z" fill="white"/>
<path d="M42.1271 35.5833C42.1052 35.6784 41.9989 35.7268 41.9128 35.681C41.5945 35.5114 41.3542 35.3829 41.1304 35.2641C41.0697 35.2319 41.0388 35.1623 41.056 35.0958C41.1629 34.6805 41.2634 34.2888 41.3692 33.8766C41.386 33.8109 41.4452 33.7651 41.5129 33.7651C41.7572 33.7651 42.0223 33.7651 42.3615 33.7651C42.457 33.7651 42.5276 33.854 42.5061 33.9469C42.3808 34.4886 42.2606 35.0065 42.1271 35.5833Z" fill="#0C6A3A"/>
<path d="M43.4139 29.0549C43.429 29.124 43.3932 29.1944 43.3284 29.2227C43.0872 29.3281 42.8433 29.434 42.5415 29.5655C42.4551 29.6032 42.3561 29.552 42.3367 29.4599C42.2393 28.9949 42.1489 28.5628 42.0534 28.1026C42.0343 28.0105 42.1048 27.9241 42.1988 27.9241C42.5173 27.9241 42.7818 27.9241 43.0472 27.9241C43.117 27.9241 43.1774 27.9726 43.1923 28.0409C43.2645 28.3724 43.3365 28.7026 43.4139 29.0549Z" fill="#0C6A3A"/>
<path d="M44.2669 50.5504C44.2669 50.7143 44.1339 50.8473 43.97 50.8473C43.802 50.8473 43.6355 50.8473 43.4639 50.8473C43.2998 50.8473 43.167 50.7144 43.167 50.5504C43.167 50.1982 43.167 49.8432 43.167 49.4727C43.167 49.3089 43.2998 49.1759 43.4639 49.1759C43.6289 49.1759 43.7965 49.1759 43.9699 49.1759C44.1339 49.1759 44.2669 49.3087 44.2669 49.4727C44.2669 49.8311 44.2669 50.1857 44.2669 50.5504Z" fill="#0C6A3A"/>
<path d="M18.5488 50.3366C18.5488 49.9581 18.5488 49.6301 18.5488 49.2605C19.1292 49.2605 19.7037 49.2605 20.3063 49.2605C20.3063 49.6182 20.3063 49.9581 20.3063 50.3366C19.7245 50.3366 19.1648 50.3366 18.5488 50.3366Z" fill="#0C6A3A"/>
<path d="M6.71541 20.3671C6.71541 20.531 6.58248 20.664 6.41852 20.664C6.27943 20.664 6.1435 20.664 6.00441 20.664C5.84045 20.664 5.70752 20.5311 5.70752 20.3671C5.70752 20.2007 5.70752 20.0343 5.70752 19.8639C5.70752 19.7 5.84043 19.567 6.00439 19.567C6.14119 19.567 6.27804 19.567 6.41854 19.567C6.58248 19.567 6.71541 19.6999 6.71541 19.8639C6.71541 20.0273 6.71541 20.1922 6.71541 20.3671Z" fill="#0C6A3A"/>
</svg>
